# xmcd
#
# Track frame offsets:
#	150
#	17052
#	32317
#	46585
#	60449
#	71899
#	86798
#	105134
#	115853
#	128855
#	146363
#
# Disc length: 2191 seconds
#
# Revision: 0
# Processed by: cddbd v1.5.1PL0 Copyright (c) Steve Scherf et al.
# Submitted via: dBpowerAMP V4.0
#
DISCID=83088d0b
DTITLE=Chris Callaghan - Whatever it takes
DYEAR=2000
DGENRE=Country
TTITLE0=Chris Callaghan - Big picture big country
TTITLE1=Chris Callaghan - Whatever it takes
TTITLE2=Chris Callaghan - Listen to the rain
TTITLE3=Chris Callaghan - Do you know what I mean
TTITLE4=Chris Callaghan - Back at the bar
TTITLE5=Chris Callaghan - Desperate lovers
TTITLE6=Chris Callaghan - Tragedy comedy
TTITLE7=Chris Callaghan - The answer
TTITLE8=Chris Callaghan - Midnight in paradise
TTITLE9=Chris Callaghan - Everybody sing 
TTITLE10=Chris Callaghan - Unsung heroes
EXTD=
EXTT0=
EXTT1=
EXTT2=
EXTT3=
EXTT4=
EXTT5=
EXTT6=
EXTT7=
EXTT8=
EXTT9=
EXTT10=
PLAYORDER=
